<mxfile host="app.diagrams.net" modified="2022-05-27T13:48:54.018Z" agent="5.0 (Macintosh; Intel Mac OS X 10_15_7) AppleWebKit/537.36 (KHTML, like Gecko) Chrome/98.0.4758.109 Safari/537.36" etag="3aWGlyffhcRLiFmltWbj" version="18.0.8" type="github">
  <diagram id="U-RbQ3eGq9pZytY2vE6l" name="Page-1">
    <mxGraphModel dx="2125" dy="756" grid="1" gridSize="10" guides="1" tooltips="1" connect="1" arrows="1" fold="1" page="1" pageScale="1" pageWidth="827" pageHeight="1169" math="0" shadow="0">
      <root>
        <mxCell id="0" />
        <mxCell id="1" parent="0" />
        <mxCell id="sRm4pwCpiXBGX7cyypLu-65" value="" style="endArrow=classic;html=1;rounded=0;exitX=0.5;exitY=1;exitDx=0;exitDy=0;entryX=0;entryY=0.75;entryDx=0;entryDy=0;dashed=1;" parent="1" source="sRm4pwCpiXBGX7cyypLu-36" target="sRm4pwCpiXBGX7cyypLu-54" edge="1">
          <mxGeometry width="50" height="50" relative="1" as="geometry">
            <mxPoint x="220" y="1100" as="sourcePoint" />
            <mxPoint x="270" y="1050" as="targetPoint" />
          </mxGeometry>
        </mxCell>
        <mxCell id="sRm4pwCpiXBGX7cyypLu-1" value="Design a WebChat" style="text;html=1;strokeColor=none;fillColor=none;align=center;verticalAlign=middle;whiteSpace=wrap;rounded=0;" parent="1" vertex="1">
          <mxGeometry x="50" y="80" width="260" height="30" as="geometry" />
        </mxCell>
        <mxCell id="sRm4pwCpiXBGX7cyypLu-2" value="Functional" style="text;html=1;strokeColor=none;fillColor=none;align=center;verticalAlign=middle;whiteSpace=wrap;rounded=0;" parent="1" vertex="1">
          <mxGeometry x="50" y="160" width="60" height="30" as="geometry" />
        </mxCell>
        <mxCell id="sRm4pwCpiXBGX7cyypLu-3" value="Non-functional" style="text;html=1;strokeColor=none;fillColor=none;align=center;verticalAlign=middle;whiteSpace=wrap;rounded=0;" parent="1" vertex="1">
          <mxGeometry x="160" y="160" width="210" height="30" as="geometry" />
        </mxCell>
        <mxCell id="sRm4pwCpiXBGX7cyypLu-4" value="1. 100 000 000" style="text;html=1;strokeColor=none;fillColor=none;align=center;verticalAlign=middle;whiteSpace=wrap;rounded=0;" parent="1" vertex="1">
          <mxGeometry x="10" y="190" width="160" height="30" as="geometry" />
        </mxCell>
        <mxCell id="sRm4pwCpiXBGX7cyypLu-5" value="2. chat for 2 people" style="text;html=1;strokeColor=none;fillColor=none;align=center;verticalAlign=middle;whiteSpace=wrap;rounded=0;" parent="1" vertex="1">
          <mxGeometry x="20" y="220" width="160" height="30" as="geometry" />
        </mxCell>
        <mxCell id="sRm4pwCpiXBGX7cyypLu-6" value="3. WEB" style="text;html=1;strokeColor=none;fillColor=none;align=center;verticalAlign=middle;whiteSpace=wrap;rounded=0;" parent="1" vertex="1">
          <mxGeometry x="-10" y="250" width="160" height="30" as="geometry" />
        </mxCell>
        <mxCell id="sRm4pwCpiXBGX7cyypLu-7" value="4. No Auth" style="text;html=1;strokeColor=none;fillColor=none;align=center;verticalAlign=middle;whiteSpace=wrap;rounded=0;" parent="1" vertex="1">
          <mxGeometry y="280" width="160" height="30" as="geometry" />
        </mxCell>
        <mxCell id="sRm4pwCpiXBGX7cyypLu-8" value="1. We can clear in some time. TTL - 1 month" style="text;html=1;strokeColor=none;fillColor=none;align=center;verticalAlign=middle;whiteSpace=wrap;rounded=0;" parent="1" vertex="1">
          <mxGeometry x="210" y="190" width="290" height="30" as="geometry" />
        </mxCell>
        <mxCell id="sRm4pwCpiXBGX7cyypLu-9" value="5. message just text" style="text;html=1;strokeColor=none;fillColor=none;align=center;verticalAlign=middle;whiteSpace=wrap;rounded=0;" parent="1" vertex="1">
          <mxGeometry x="-45" y="310" width="290" height="30" as="geometry" />
        </mxCell>
        <mxCell id="sRm4pwCpiXBGX7cyypLu-10" value="2. Fast Read/Writes" style="text;html=1;strokeColor=none;fillColor=none;align=center;verticalAlign=middle;whiteSpace=wrap;rounded=0;" parent="1" vertex="1">
          <mxGeometry x="150" y="220" width="290" height="30" as="geometry" />
        </mxCell>
        <mxCell id="sRm4pwCpiXBGX7cyypLu-11" value="3.&amp;nbsp; Save" style="text;html=1;strokeColor=none;fillColor=none;align=center;verticalAlign=middle;whiteSpace=wrap;rounded=0;" parent="1" vertex="1">
          <mxGeometry x="120" y="250" width="290" height="30" as="geometry" />
        </mxCell>
        <mxCell id="sRm4pwCpiXBGX7cyypLu-12" value="Actor" style="shape=umlActor;verticalLabelPosition=bottom;verticalAlign=top;html=1;outlineConnect=0;" parent="1" vertex="1">
          <mxGeometry x="-120" y="490" width="30" height="60" as="geometry" />
        </mxCell>
        <mxCell id="sRm4pwCpiXBGX7cyypLu-13" value="Actor" style="shape=umlActor;verticalLabelPosition=bottom;verticalAlign=top;html=1;outlineConnect=0;" parent="1" vertex="1">
          <mxGeometry x="690" y="490" width="30" height="60" as="geometry" />
        </mxCell>
        <mxCell id="sRm4pwCpiXBGX7cyypLu-14" value="WEB Chart" style="rounded=1;whiteSpace=wrap;html=1;" parent="1" vertex="1">
          <mxGeometry x="-50" y="490" width="120" height="60" as="geometry" />
        </mxCell>
        <mxCell id="sRm4pwCpiXBGX7cyypLu-15" value="WEB Chart" style="rounded=1;whiteSpace=wrap;html=1;" parent="1" vertex="1">
          <mxGeometry x="510" y="490" width="120" height="60" as="geometry" />
        </mxCell>
        <mxCell id="sRm4pwCpiXBGX7cyypLu-17" value="" style="endArrow=classic;html=1;rounded=0;entryX=1;entryY=0.5;entryDx=0;entryDy=0;" parent="1" source="sRm4pwCpiXBGX7cyypLu-13" target="sRm4pwCpiXBGX7cyypLu-15" edge="1">
          <mxGeometry width="50" height="50" relative="1" as="geometry">
            <mxPoint x="580" y="550" as="sourcePoint" />
            <mxPoint x="630" y="500" as="targetPoint" />
          </mxGeometry>
        </mxCell>
        <mxCell id="sRm4pwCpiXBGX7cyypLu-18" value="" style="endArrow=classic;html=1;rounded=0;entryX=0;entryY=0.5;entryDx=0;entryDy=0;" parent="1" source="sRm4pwCpiXBGX7cyypLu-12" target="sRm4pwCpiXBGX7cyypLu-14" edge="1">
          <mxGeometry width="50" height="50" relative="1" as="geometry">
            <mxPoint x="280" y="550" as="sourcePoint" />
            <mxPoint x="330" y="500" as="targetPoint" />
          </mxGeometry>
        </mxCell>
        <mxCell id="sRm4pwCpiXBGX7cyypLu-19" value="1. Long Polling&amp;nbsp;" style="text;html=1;strokeColor=none;fillColor=none;align=center;verticalAlign=middle;whiteSpace=wrap;rounded=0;" parent="1" vertex="1">
          <mxGeometry x="160" y="390" width="235" height="30" as="geometry" />
        </mxCell>
        <mxCell id="sRm4pwCpiXBGX7cyypLu-20" value="2. WebSocket" style="text;html=1;strokeColor=none;fillColor=none;align=center;verticalAlign=middle;whiteSpace=wrap;rounded=0;" parent="1" vertex="1">
          <mxGeometry x="160" y="420" width="235" height="30" as="geometry" />
        </mxCell>
        <mxCell id="sRm4pwCpiXBGX7cyypLu-21" value="Servises" style="shape=cylinder3;whiteSpace=wrap;html=1;boundedLbl=1;backgroundOutline=1;size=15;" parent="1" vertex="1">
          <mxGeometry x="120" y="480" width="60" height="80" as="geometry" />
        </mxCell>
        <mxCell id="sRm4pwCpiXBGX7cyypLu-22" value="Broker message" style="shape=cylinder3;whiteSpace=wrap;html=1;boundedLbl=1;backgroundOutline=1;size=15;direction=south;" parent="1" vertex="1">
          <mxGeometry x="200" y="630" width="170" height="60" as="geometry" />
        </mxCell>
        <mxCell id="sRm4pwCpiXBGX7cyypLu-23" value="" style="endArrow=classic;html=1;rounded=0;entryX=0;entryY=0.5;entryDx=0;entryDy=0;entryPerimeter=0;" parent="1" source="sRm4pwCpiXBGX7cyypLu-14" target="sRm4pwCpiXBGX7cyypLu-21" edge="1">
          <mxGeometry width="50" height="50" relative="1" as="geometry">
            <mxPoint x="390" y="540" as="sourcePoint" />
            <mxPoint x="440" y="490" as="targetPoint" />
          </mxGeometry>
        </mxCell>
        <mxCell id="sRm4pwCpiXBGX7cyypLu-26" value="" style="endArrow=classic;html=1;rounded=0;exitX=0.5;exitY=1;exitDx=0;exitDy=0;exitPerimeter=0;entryX=0.5;entryY=1;entryDx=0;entryDy=0;entryPerimeter=0;startArrow=classicThin;startFill=1;" parent="1" source="sRm4pwCpiXBGX7cyypLu-21" target="sRm4pwCpiXBGX7cyypLu-22" edge="1">
          <mxGeometry width="50" height="50" relative="1" as="geometry">
            <mxPoint x="390" y="540" as="sourcePoint" />
            <mxPoint x="440" y="490" as="targetPoint" />
          </mxGeometry>
        </mxCell>
        <mxCell id="sRm4pwCpiXBGX7cyypLu-27" value="Services" style="shape=cylinder3;whiteSpace=wrap;html=1;boundedLbl=1;backgroundOutline=1;size=15;" parent="1" vertex="1">
          <mxGeometry x="380" y="470" width="60" height="80" as="geometry" />
        </mxCell>
        <mxCell id="sRm4pwCpiXBGX7cyypLu-28" value="" style="endArrow=classic;startArrow=classic;html=1;rounded=0;exitX=0.5;exitY=0;exitDx=0;exitDy=0;exitPerimeter=0;entryX=0.5;entryY=1;entryDx=0;entryDy=0;entryPerimeter=0;" parent="1" source="sRm4pwCpiXBGX7cyypLu-22" target="sRm4pwCpiXBGX7cyypLu-27" edge="1">
          <mxGeometry width="50" height="50" relative="1" as="geometry">
            <mxPoint x="390" y="540" as="sourcePoint" />
            <mxPoint x="440" y="490" as="targetPoint" />
          </mxGeometry>
        </mxCell>
        <mxCell id="sRm4pwCpiXBGX7cyypLu-29" value="" style="endArrow=classic;startArrow=classic;html=1;rounded=0;entryX=0;entryY=0.5;entryDx=0;entryDy=0;exitX=1;exitY=0;exitDx=0;exitDy=52.5;exitPerimeter=0;" parent="1" source="sRm4pwCpiXBGX7cyypLu-27" target="sRm4pwCpiXBGX7cyypLu-15" edge="1">
          <mxGeometry width="50" height="50" relative="1" as="geometry">
            <mxPoint x="390" y="540" as="sourcePoint" />
            <mxPoint x="440" y="490" as="targetPoint" />
          </mxGeometry>
        </mxCell>
        <mxCell id="sRm4pwCpiXBGX7cyypLu-30" value="Client" style="shape=umlActor;verticalLabelPosition=bottom;verticalAlign=top;html=1;outlineConnect=0;" parent="1" vertex="1">
          <mxGeometry x="-230" y="840" width="30" height="60" as="geometry" />
        </mxCell>
        <mxCell id="sRm4pwCpiXBGX7cyypLu-31" value="Operator" style="shape=umlActor;verticalLabelPosition=bottom;verticalAlign=top;html=1;outlineConnect=0;" parent="1" vertex="1">
          <mxGeometry x="520" y="870" width="30" height="60" as="geometry" />
        </mxCell>
        <mxCell id="sRm4pwCpiXBGX7cyypLu-33" value="Online Banking WEB" style="rounded=1;whiteSpace=wrap;html=1;" parent="1" vertex="1">
          <mxGeometry x="-130" y="790" width="120" height="60" as="geometry" />
        </mxCell>
        <mxCell id="sRm4pwCpiXBGX7cyypLu-34" value="1.JS Bundle" style="text;html=1;strokeColor=none;fillColor=none;align=center;verticalAlign=middle;whiteSpace=wrap;rounded=0;" parent="1" vertex="1">
          <mxGeometry x="-140" y="830" width="110" height="30" as="geometry" />
        </mxCell>
        <mxCell id="sRm4pwCpiXBGX7cyypLu-35" value="Client Services" style="shape=parallelogram;perimeter=parallelogramPerimeter;whiteSpace=wrap;html=1;fixedSize=1;" parent="1" vertex="1">
          <mxGeometry x="-80" y="890" width="120" height="60" as="geometry" />
        </mxCell>
        <mxCell id="sRm4pwCpiXBGX7cyypLu-36" value="Client Services" style="shape=parallelogram;perimeter=parallelogramPerimeter;whiteSpace=wrap;html=1;fixedSize=1;" parent="1" vertex="1">
          <mxGeometry x="-70" y="900" width="120" height="60" as="geometry" />
        </mxCell>
        <mxCell id="sRm4pwCpiXBGX7cyypLu-37" value="Operator Services" style="shape=parallelogram;perimeter=parallelogramPerimeter;whiteSpace=wrap;html=1;fixedSize=1;" parent="1" vertex="1">
          <mxGeometry x="290" y="880" width="120" height="60" as="geometry" />
        </mxCell>
        <mxCell id="sRm4pwCpiXBGX7cyypLu-38" value="Operator Services" style="shape=parallelogram;perimeter=parallelogramPerimeter;whiteSpace=wrap;html=1;fixedSize=1;" parent="1" vertex="1">
          <mxGeometry x="300" y="900" width="120" height="60" as="geometry" />
        </mxCell>
        <mxCell id="sRm4pwCpiXBGX7cyypLu-39" value="Queue" style="shape=cylinder3;whiteSpace=wrap;html=1;boundedLbl=1;backgroundOutline=1;size=15;rotation=90;" parent="1" vertex="1">
          <mxGeometry x="140" y="880" width="60" height="80" as="geometry" />
        </mxCell>
        <mxCell id="sRm4pwCpiXBGX7cyypLu-40" value="" style="endArrow=classic;html=1;rounded=0;exitX=1;exitY=0.75;exitDx=0;exitDy=0;entryX=0.5;entryY=1;entryDx=0;entryDy=0;entryPerimeter=0;" parent="1" source="sRm4pwCpiXBGX7cyypLu-36" target="sRm4pwCpiXBGX7cyypLu-39" edge="1">
          <mxGeometry width="50" height="50" relative="1" as="geometry">
            <mxPoint x="220" y="1080" as="sourcePoint" />
            <mxPoint x="270" y="1030" as="targetPoint" />
          </mxGeometry>
        </mxCell>
        <mxCell id="sRm4pwCpiXBGX7cyypLu-41" value="" style="endArrow=classic;html=1;rounded=0;exitX=0.5;exitY=0;exitDx=0;exitDy=0;exitPerimeter=0;entryX=0;entryY=0.5;entryDx=0;entryDy=0;" parent="1" source="sRm4pwCpiXBGX7cyypLu-39" target="sRm4pwCpiXBGX7cyypLu-37" edge="1">
          <mxGeometry width="50" height="50" relative="1" as="geometry">
            <mxPoint x="220" y="1080" as="sourcePoint" />
            <mxPoint x="270" y="1030" as="targetPoint" />
          </mxGeometry>
        </mxCell>
        <mxCell id="sRm4pwCpiXBGX7cyypLu-42" value="" style="endArrow=none;dashed=1;html=1;dashPattern=1 3;strokeWidth=2;rounded=0;" parent="1" target="sRm4pwCpiXBGX7cyypLu-43" edge="1">
          <mxGeometry width="50" height="50" relative="1" as="geometry">
            <mxPoint x="160" y="1200" as="sourcePoint" />
            <mxPoint x="150" y="725" as="targetPoint" />
          </mxGeometry>
        </mxCell>
        <mxCell id="sRm4pwCpiXBGX7cyypLu-72" value="Text" style="edgeLabel;html=1;align=center;verticalAlign=middle;resizable=0;points=[];" parent="sRm4pwCpiXBGX7cyypLu-42" vertex="1" connectable="0">
          <mxGeometry x="0.2104" y="-5" relative="1" as="geometry">
            <mxPoint as="offset" />
          </mxGeometry>
        </mxCell>
        <mxCell id="sRm4pwCpiXBGX7cyypLu-43" value="Text" style="text;html=1;strokeColor=none;fillColor=none;align=center;verticalAlign=middle;whiteSpace=wrap;rounded=0;" parent="1" vertex="1">
          <mxGeometry x="120" y="710" width="60" height="30" as="geometry" />
        </mxCell>
        <mxCell id="sRm4pwCpiXBGX7cyypLu-44" value="Public Network" style="text;html=1;strokeColor=none;fillColor=none;align=center;verticalAlign=middle;whiteSpace=wrap;rounded=0;" parent="1" vertex="1">
          <mxGeometry x="-230" y="730" width="60" height="30" as="geometry" />
        </mxCell>
        <mxCell id="sRm4pwCpiXBGX7cyypLu-45" value="Inner Network" style="text;html=1;strokeColor=none;fillColor=none;align=center;verticalAlign=middle;whiteSpace=wrap;rounded=0;" parent="1" vertex="1">
          <mxGeometry x="360" y="730" width="60" height="30" as="geometry" />
        </mxCell>
        <mxCell id="sRm4pwCpiXBGX7cyypLu-46" value="1. Why do you use MQ?&amp;nbsp;" style="text;html=1;strokeColor=none;fillColor=none;align=center;verticalAlign=middle;whiteSpace=wrap;rounded=0;" parent="1" vertex="1">
          <mxGeometry x="500" y="700" width="170" height="30" as="geometry" />
        </mxCell>
        <mxCell id="sRm4pwCpiXBGX7cyypLu-47" value="MemCached" style="rounded=1;whiteSpace=wrap;html=1;" parent="1" vertex="1">
          <mxGeometry x="100" y="1050" width="120" height="60" as="geometry" />
        </mxCell>
        <mxCell id="sRm4pwCpiXBGX7cyypLu-48" value="" style="endArrow=classic;html=1;rounded=0;exitX=1;exitY=1;exitDx=0;exitDy=0;entryX=0;entryY=0.5;entryDx=0;entryDy=0;" parent="1" source="sRm4pwCpiXBGX7cyypLu-36" target="sRm4pwCpiXBGX7cyypLu-47" edge="1">
          <mxGeometry width="50" height="50" relative="1" as="geometry">
            <mxPoint x="220" y="950" as="sourcePoint" />
            <mxPoint x="270" y="900" as="targetPoint" />
          </mxGeometry>
        </mxCell>
        <mxCell id="sRm4pwCpiXBGX7cyypLu-49" value="" style="endArrow=classic;html=1;rounded=0;exitX=1.017;exitY=0.642;exitDx=0;exitDy=0;exitPerimeter=0;entryX=0.75;entryY=1;entryDx=0;entryDy=0;" parent="1" source="sRm4pwCpiXBGX7cyypLu-47" target="sRm4pwCpiXBGX7cyypLu-38" edge="1">
          <mxGeometry width="50" height="50" relative="1" as="geometry">
            <mxPoint x="220" y="950" as="sourcePoint" />
            <mxPoint x="270" y="900" as="targetPoint" />
          </mxGeometry>
        </mxCell>
        <mxCell id="sRm4pwCpiXBGX7cyypLu-50" value="2. What data structure? (Key-value). HashTable" style="text;html=1;strokeColor=none;fillColor=none;align=center;verticalAlign=middle;whiteSpace=wrap;rounded=0;" parent="1" vertex="1">
          <mxGeometry x="500" y="730" width="290" height="30" as="geometry" />
        </mxCell>
        <mxCell id="sRm4pwCpiXBGX7cyypLu-52" value="" style="endArrow=classic;html=1;rounded=0;entryX=1;entryY=0.25;entryDx=0;entryDy=0;" parent="1" source="sRm4pwCpiXBGX7cyypLu-31" target="sRm4pwCpiXBGX7cyypLu-38" edge="1">
          <mxGeometry width="50" height="50" relative="1" as="geometry">
            <mxPoint x="220" y="940" as="sourcePoint" />
            <mxPoint x="270" y="890" as="targetPoint" />
          </mxGeometry>
        </mxCell>
        <mxCell id="sRm4pwCpiXBGX7cyypLu-53" value="" style="endArrow=classic;html=1;rounded=0;" parent="1" target="sRm4pwCpiXBGX7cyypLu-35" edge="1">
          <mxGeometry width="50" height="50" relative="1" as="geometry">
            <mxPoint x="-240" y="880" as="sourcePoint" />
            <mxPoint x="270" y="890" as="targetPoint" />
          </mxGeometry>
        </mxCell>
        <mxCell id="sRm4pwCpiXBGX7cyypLu-54" value="Audit Service" style="rounded=1;whiteSpace=wrap;html=1;" parent="1" vertex="1">
          <mxGeometry x="260" y="1220" width="120" height="60" as="geometry" />
        </mxCell>
        <mxCell id="sRm4pwCpiXBGX7cyypLu-55" value="3. Eviction police: LRU" style="text;html=1;strokeColor=none;fillColor=none;align=center;verticalAlign=middle;whiteSpace=wrap;rounded=0;" parent="1" vertex="1">
          <mxGeometry x="470" y="760" width="230" height="30" as="geometry" />
        </mxCell>
        <mxCell id="sRm4pwCpiXBGX7cyypLu-56" value="Text" style="text;html=1;strokeColor=none;fillColor=none;align=center;verticalAlign=middle;whiteSpace=wrap;rounded=0;" parent="1" vertex="1">
          <mxGeometry x="220" y="895" width="60" height="30" as="geometry" />
        </mxCell>
        <mxCell id="sRm4pwCpiXBGX7cyypLu-57" value="MemCached" style="rounded=1;whiteSpace=wrap;html=1;" parent="1" vertex="1">
          <mxGeometry x="100" y="1120" width="120" height="60" as="geometry" />
        </mxCell>
        <mxCell id="sRm4pwCpiXBGX7cyypLu-59" value="4. Что делаем если нет картинки" style="text;html=1;strokeColor=none;fillColor=none;align=center;verticalAlign=middle;whiteSpace=wrap;rounded=0;" parent="1" vertex="1">
          <mxGeometry x="500" y="790" width="230" height="30" as="geometry" />
        </mxCell>
        <mxCell id="sRm4pwCpiXBGX7cyypLu-60" value="" style="endArrow=classic;html=1;rounded=0;entryX=0.855;entryY=0;entryDx=0;entryDy=4.35;entryPerimeter=0;exitX=0;exitY=0.75;exitDx=0;exitDy=0;" parent="1" source="sRm4pwCpiXBGX7cyypLu-38" target="sRm4pwCpiXBGX7cyypLu-39" edge="1">
          <mxGeometry width="50" height="50" relative="1" as="geometry">
            <mxPoint x="220" y="1070" as="sourcePoint" />
            <mxPoint x="270" y="1020" as="targetPoint" />
          </mxGeometry>
        </mxCell>
        <mxCell id="sRm4pwCpiXBGX7cyypLu-61" value="" style="endArrow=classic;html=1;rounded=0;entryX=0.855;entryY=0;entryDx=0;entryDy=4.35;entryPerimeter=0;exitX=0;exitY=0.75;exitDx=0;exitDy=0;" parent="1" edge="1">
          <mxGeometry width="50" height="50" relative="1" as="geometry">
            <mxPoint x="149.8045454545455" y="897.3363636363638" as="sourcePoint" />
            <mxPoint x="50.000000000000085" y="895.0000000000002" as="targetPoint" />
            <Array as="points">
              <mxPoint x="90" y="897" />
            </Array>
          </mxGeometry>
        </mxCell>
        <mxCell id="sRm4pwCpiXBGX7cyypLu-62" value="5. How many partions do you use in Queue? = 1" style="text;html=1;strokeColor=none;fillColor=none;align=center;verticalAlign=middle;whiteSpace=wrap;rounded=0;" parent="1" vertex="1">
          <mxGeometry x="510" y="820" width="230" height="30" as="geometry" />
        </mxCell>
        <mxCell id="sRm4pwCpiXBGX7cyypLu-63" value="Monitoring Services" style="rounded=1;whiteSpace=wrap;html=1;" parent="1" vertex="1">
          <mxGeometry x="410" y="1220" width="120" height="60" as="geometry" />
        </mxCell>
        <mxCell id="sRm4pwCpiXBGX7cyypLu-64" value="Login Services" style="rounded=1;whiteSpace=wrap;html=1;" parent="1" vertex="1">
          <mxGeometry x="560" y="1220" width="120" height="60" as="geometry" />
        </mxCell>
        <mxCell id="sRm4pwCpiXBGX7cyypLu-66" value="SUP" style="rounded=1;whiteSpace=wrap;html=1;" parent="1" vertex="1">
          <mxGeometry x="50" y="1220" width="120" height="60" as="geometry" />
        </mxCell>
        <mxCell id="sRm4pwCpiXBGX7cyypLu-67" value="Вспомнить про аналог" style="text;html=1;strokeColor=none;fillColor=none;align=center;verticalAlign=middle;whiteSpace=wrap;rounded=0;" parent="1" vertex="1">
          <mxGeometry x="45" y="1280" width="130" height="30" as="geometry" />
        </mxCell>
        <mxCell id="sRm4pwCpiXBGX7cyypLu-68" value="1. Сократить по времени&amp;nbsp;" style="text;html=1;strokeColor=none;fillColor=none;align=center;verticalAlign=middle;whiteSpace=wrap;rounded=0;" parent="1" vertex="1">
          <mxGeometry x="-330" y="1080" width="190" height="30" as="geometry" />
        </mxCell>
        <mxCell id="sRm4pwCpiXBGX7cyypLu-69" value="2. Добавить сколько клиентов 1000 клиентов" style="text;html=1;strokeColor=none;fillColor=none;align=center;verticalAlign=middle;whiteSpace=wrap;rounded=0;" parent="1" vertex="1">
          <mxGeometry x="-320" y="1110" width="200" height="30" as="geometry" />
        </mxCell>
        <mxCell id="sRm4pwCpiXBGX7cyypLu-71" value="3. Посмотреть струкртуру которая у нас в игнайте. (Либо список, либо хэш таблица, либо ключ-валью)" style="text;html=1;strokeColor=none;fillColor=none;align=center;verticalAlign=middle;whiteSpace=wrap;rounded=0;" parent="1" vertex="1">
          <mxGeometry x="-320" y="1150" width="200" height="30" as="geometry" />
        </mxCell>
      </root>
    </mxGraphModel>
  </diagram>
</mxfile>
